<?xml version="1.0" encoding="UTF-8"?>
<svg id="Layer_2" data-name="Layer 2" xmlns="http://www.w3.org/2000/svg" viewBox="0 0 481.59 91.59">
  <defs>
    <style>
      .cls-1 {
        fill: none;
        stroke: #fff;
        stroke-miterlimit: 10;
      }

      .cls-2 {
        fill: #fff;
      }
    </style>
  </defs>
  <g id="Layer_1-2" data-name="Layer 1">
    <g>
      <g>
        <path class="cls-2" d="M213.46,45.77c-1.4-1.64-4.67-3.19-7.56-3.19h-1.64c-6.78,0-12.39,6-12.39,13.48v21.97c0,7.48,5.61,13.56,12.39,13.56h1.64c2.88,0,6.16-1.56,7.56-3.19l.47,2.42h7.32V28.47h-7.79v17.3ZM213.46,78.26c0,3.43-2.73,6.23-6.08,6.23h-1.64c-3.35,0-6.08-2.88-6.08-6.39v-22.05c0-3.51,2.73-6.47,6.08-6.47h1.64c3.35,0,6.08,2.96,6.08,6.47v22.21Z"/>
        <polygon class="cls-2" points="230.09 50.44 240.04 50.44 240.04 90.81 247.83 90.81 247.83 43.43 230.09 43.43 230.09 50.44"/>
        <path class="cls-2" d="M169.17,42.65h-1.64c-7.64,0-13.87,6-13.87,13.48v21.97c0,7.48,6.23,13.48,13.87,13.48h1.64c7.64,0,13.87-6,13.87-13.48v-1.4h-7.79v1.4c0,3.51-2.65,6.39-6.08,6.39h-1.64c-3.35,0-6.08-2.88-6.08-6.39v-7.48h21.58v-14.49c0-7.48-6.23-13.48-13.87-13.48ZM175.24,63.61h-13.79v-7.48c0-3.59,2.73-6.47,6.08-6.47h1.64c3.43,0,6.08,2.88,6.08,6.47v7.48Z"/>
        <path class="cls-2" d="M481.59,70.62v-14.49c0-7.48-6.23-13.48-13.87-13.48h-1.64c-7.64,0-13.87,6-13.87,13.48v21.97c0,7.48,6.23,13.48,13.87,13.48h1.64c7.64,0,13.87-6,13.87-13.48v-1.4h-7.79v1.4c0,3.51-2.65,6.39-6.08,6.39h-1.64c-3.35,0-6.08-2.88-6.08-6.39v-7.48h21.58ZM460.01,56.13c0-3.59,2.73-6.47,6.08-6.47h1.64c3.43,0,6.08,2.88,6.08,6.47v7.48h-13.79v-7.48Z"/>
        <path class="cls-2" d="M392.82,82.16v-26.1c0-7.4-6.23-13.4-13.87-13.4h-.7c-7.64,0-13.87,6-13.87,13.48v1.48h7.79v-1.48c0-3.59,2.73-6.47,6.08-6.47h.7c3.43,0,6.08,2.88,6.08,6.47v7.79c-1.25-.47-3.43-.78-5.38-.78-6.7,0-16.13,3.74-16.13,14.96,0,8.1,5.53,13.48,13.17,13.48h1.64c4.29,0,6.78-1.71,8.81-3.66,1.56,2.34,3.58,3.04,5.92,3.04,1.32,0,2.73,0,4.05-.16v-7.09h-2.73c-.86,0-1.56-.55-1.56-1.56ZM385.03,78.11c0,3.35-2.65,6.39-6.08,6.39h-1.64c-3.35,0-6-2.49-6-6.39,0-5.61,4.28-8.34,8.49-8.34,1.64,0,3.66.39,5.22,1.25v7.09Z"/>
        <path class="cls-2" d="M243.16,25.98c-3.04,0-5.45,2.49-5.45,5.53s2.42,5.45,5.45,5.45,5.53-2.42,5.53-5.45-2.49-5.53-5.53-5.53Z"/>
        <path class="cls-2" d="M335.89,56.76l.08,34.05h7.71v-34.05c0-5.84,4.05-6.39,8.49-6.39,1.5,0,3.44.05,5.28.13v-6.97c-1.99-.1-4.15-.17-5.28-.17-8.42,0-16.29,2.18-16.29,13.4Z"/>
        <path class="cls-2" d="M288.14,82.16v-26.1c0-7.4-6.23-13.4-13.87-13.4h-.7c-7.64,0-13.87,6-13.87,13.48v1.48h7.79v-1.48c0-3.59,2.73-6.47,6.08-6.47h.7c3.43,0,6.08,2.88,6.08,6.47v7.79c-1.25-.47-3.43-.78-5.38-.78-6.7,0-16.13,3.74-16.13,14.96,0,8.1,5.53,13.48,13.17,13.48h1.64c4.28,0,6.78-1.71,8.8-3.66,1.56,2.34,3.58,3.04,5.92,3.04,1.32,0,2.73,0,4.05-.16v-7.09h-2.73c-.86,0-1.56-.55-1.56-1.56ZM280.35,78.11c0,3.35-2.65,6.39-6.08,6.39h-1.64c-3.35,0-6-2.49-6-6.39,0-5.61,4.28-8.34,8.49-8.34,1.64,0,3.66.39,5.22,1.25v7.09Z"/>
        <polygon class="cls-2" points="301.36 90.81 309.39 90.81 309.39 65.4 324.7 65.4 324.7 58.16 309.39 58.16 309.39 37.98 329.41 37.98 329.41 30.81 301.36 30.81 301.36 90.81"/>
        <path class="cls-2" d="M136.2,42.65c-2.71,0-6.27,1.23-8.1,4.08-1.32-2.2-4.06-4.08-7.73-4.08-2.16,0-4.85.79-6.79,2.56v-.03s-.6-2.06-.6-2.06h-7.48v47.38h7.64v-37.24c.05-2.37,2.27-3.6,3.97-3.6,2.38,0,4.29,1.17,4.29,3.04v38.1h7.56v-37.5.02c0-2.42,2.26-3.66,3.98-3.66,2.38,0,4.29,1.17,4.29,3.04v38.1h7.56v-41.22c0-3.12-3.37-6.93-8.59-6.93Z"/>
        <path class="cls-2" d="M434.76,42.65c-2.71,0-6.27,1.23-8.1,4.08-1.32-2.2-4.06-4.08-7.73-4.08-2.16,0-4.85.79-6.79,2.56v-.03s-.6-2.06-.6-2.06h-7.48v47.38h7.64v-37.24c.05-2.37,2.27-3.6,3.97-3.6,2.38,0,4.29,1.17,4.29,3.04v38.1h7.56v-37.5.02c0-2.42,2.26-3.66,3.98-3.66,2.38,0,4.29,1.17,4.29,3.04v38.1h7.56v-41.22c0-3.12-3.37-6.93-8.59-6.93Z"/>
      </g>
      <rect class="cls-1" x=".5" y=".5" width="30" height="30"/>
      <polygon class="cls-1" points="30.5 .5 30.5 30.5 .5 30.5 .5 90.5 30.5 90.5 30.5 60.5 60.5 60.5 60.5 30.5 90.5 30.5 90.5 .5 30.5 .5"/>
    </g>
  </g>
</svg>