<svg width="1360" height="238" viewBox="0 0 1360 238" fill="none" xmlns="http://www.w3.org/2000/svg">
<path d="M390.4 71.5636C385.337 65.6331 373.512 60.0281 363.062 60.0281H357.131C332.614 60.0281 312.327 81.725 312.327 108.774V188.221C312.327 215.27 332.614 237.256 357.131 237.256H363.062C373.476 237.256 385.337 231.615 390.4 225.72L392.099 234.471H418.57V9.00415H390.4V71.5636ZM390.4 189.052C390.4 201.456 380.528 211.581 368.414 211.581H362.483C350.369 211.581 340.497 201.167 340.497 188.474V108.738C340.497 96.045 350.369 85.3412 362.483 85.3412H368.414C380.528 85.3412 390.4 96.045 390.4 108.738V189.052Z" fill="black"/>
<path d="M450.536 88.4512H486.517V234.435H514.687V63.1019H450.536V88.4512Z" fill="black"/>
<path d="M230.241 60.2812H224.31C196.683 60.2812 174.154 81.9782 174.154 109.027V188.474C174.154 215.523 196.683 237.22 224.31 237.22H230.241C257.868 237.22 280.397 215.523 280.397 188.474V183.411H252.227V188.474C252.227 201.167 242.644 211.581 230.241 211.581H224.31C212.196 211.581 202.324 201.167 202.324 188.474V161.425H280.361V109.027C280.361 81.9782 257.832 60.2812 230.205 60.2812H230.241ZM252.191 136.076H202.324V109.027C202.324 96.045 212.196 85.6305 224.31 85.6305H230.241C242.644 85.6305 252.227 96.045 252.227 109.027V136.076H252.191Z" fill="black"/>
<path d="M1360 161.425V109.027C1360 81.9782 1337.47 60.2812 1309.84 60.2812H1303.91C1276.29 60.2812 1253.76 81.9782 1253.76 109.027V188.474C1253.76 215.523 1276.29 237.22 1303.91 237.22H1309.84C1337.47 237.22 1360 215.523 1360 188.474V183.411H1331.83V188.474C1331.83 201.167 1322.25 211.581 1309.84 211.581H1303.91C1291.8 211.581 1281.93 201.167 1281.93 188.474V161.425H1359.96H1360ZM1281.96 109.027C1281.96 96.045 1291.84 85.6305 1303.95 85.6305H1309.88C1322.28 85.6305 1331.87 96.045 1331.87 109.027V136.076H1282V109.027H1281.96Z" fill="black"/>
<path d="M1038.99 203.156V108.774C1038.99 82.0144 1016.46 60.3175 988.837 60.3175H986.306C958.678 60.3175 936.15 82.0144 936.15 109.063V114.415H964.319V109.063C964.319 96.0813 974.191 85.6667 986.306 85.6667H988.837C1001.24 85.6667 1010.82 96.0813 1010.82 109.063V137.233C1006.3 135.534 998.42 134.413 991.368 134.413C967.14 134.413 933.04 147.937 933.04 188.51C933.04 217.801 953.037 237.256 980.664 237.256H986.595C1002.11 237.256 1011.11 231.072 1018.45 224.021C1024.09 232.483 1031.4 235.014 1039.86 235.014C1044.63 235.014 1049.73 235.014 1054.51 234.435V208.797H1044.63C1041.52 208.797 1038.99 206.808 1038.99 203.156ZM1010.82 188.51C1010.82 200.624 1001.24 211.617 988.837 211.617H982.906C970.792 211.617 961.209 202.613 961.209 188.51C961.209 168.224 976.687 158.351 991.911 158.351C997.841 158.351 1005.15 159.762 1010.79 162.872V188.51H1010.82Z" fill="black"/>
<path d="M497.799 0C486.806 0 478.091 9.00422 478.091 19.9973C478.091 30.9904 486.842 39.7054 497.799 39.7054C508.756 39.7054 517.796 30.9543 517.796 19.9973C517.796 9.04039 508.792 0 497.799 0Z" fill="black"/>
<path d="M833.126 111.269L833.415 234.399H861.296V111.269C861.296 90.1507 875.941 88.1619 891.997 88.1619C897.421 88.1619 904.437 88.3427 911.09 88.632V63.4274C903.894 63.0658 896.083 62.8126 891.997 62.8126C861.549 62.8126 833.09 70.6958 833.09 111.269H833.126Z" fill="black"/>
<path d="M660.455 203.156V108.774C660.455 82.0144 637.926 60.3175 610.299 60.3175H607.767C580.14 60.3175 557.611 82.0144 557.611 109.063V114.415H585.781V109.063C585.781 96.0813 595.653 85.6667 607.767 85.6667H610.299C622.702 85.6667 632.285 96.0813 632.285 109.063V137.233C627.765 135.534 619.882 134.413 612.83 134.413C588.602 134.413 554.501 147.937 554.501 188.51C554.501 217.801 574.499 237.256 602.126 237.256H608.057C623.534 237.256 632.574 231.072 639.879 224.021C645.52 232.483 652.825 235.014 661.286 235.014C666.06 235.014 671.159 235.014 675.932 234.435V208.797H666.06C662.95 208.797 660.419 206.808 660.419 203.156H660.455ZM632.285 188.51C632.285 200.624 622.702 211.617 610.299 211.617H604.368C592.254 211.617 582.671 202.613 582.671 188.51C582.671 168.224 598.148 158.351 613.372 158.351C619.303 158.351 626.608 159.762 632.249 162.872V188.51H632.285Z" fill="black"/>
<path d="M708.258 234.435H737.296V142.549H792.659V116.368H737.296V43.3938H809.691V17.466H708.258V234.435Z" fill="black"/>
<path d="M111.016 60.2812C101.216 60.2812 88.3427 64.7291 81.7251 75.0352C76.9518 67.0796 67.0435 60.2812 53.7722 60.2812C45.9613 60.2812 36.2339 63.138 29.2185 69.5386V69.4301L27.0488 61.9808H0V233.314H27.6274V98.6486C27.8082 90.0783 35.8361 85.6305 41.9835 85.6305C50.59 85.6305 57.4968 89.8614 57.4968 96.6236V234.399H84.835V98.7933V98.8656C84.835 90.1145 93.0075 85.6305 99.2273 85.6305C107.834 85.6305 114.741 89.8614 114.741 96.6236V234.399H142.079V85.3412C142.079 74.0588 129.892 60.2812 111.016 60.2812Z" fill="black"/>
<path d="M1190.66 60.2812C1180.86 60.2812 1167.98 64.7291 1161.36 75.0352C1156.59 67.0796 1146.68 60.2812 1133.41 60.2812C1125.6 60.2812 1115.87 63.138 1108.86 69.5386V69.4301L1106.69 61.9808H1079.64V233.314H1107.27V98.6486C1107.45 90.0783 1115.48 85.6305 1121.62 85.6305C1130.23 85.6305 1137.14 89.8614 1137.14 96.6236V234.399H1164.47V98.7933V98.8656C1164.47 90.1145 1172.65 85.6305 1178.87 85.6305C1187.47 85.6305 1194.38 89.8614 1194.38 96.6236V234.399H1221.72V85.3412C1221.72 74.0588 1209.53 60.2812 1190.66 60.2812Z" fill="black"/>
</svg>
